<?xml version="1.0" encoding="UTF-8"?>
<svg version="1.1" xmlns="http://www.w3.org/2000/svg" width="225" height="225">
<path d="M0 0 C74.25 0 148.5 0 225 0 C225 74.25 225 148.5 225 225 C150.75 225 76.5 225 0 225 C0 150.75 0 76.5 0 0 Z " fill="#FEFEFE" transform="translate(0,0)"/>
<path d="M0 0 C3.9269987 2.05938148 6.39988812 4.13481413 7.96484375 8.27734375 C8.55563568 13.50871097 8.10280259 17.43925362 5.96484375 22.27734375 C7.00382812 22.75042969 8.0428125 23.22351563 9.11328125 23.7109375 C23.76559892 30.56909484 33.07332967 38.4470757 39.96484375 53.27734375 C41.8527487 58.78373319 42.27119063 63.64922697 42.30859375 69.39453125 C42.32321655 70.25112335 42.33783936 71.10771545 42.35290527 71.99026489 C42.39910031 74.71091105 42.43345856 77.431489 42.46484375 80.15234375 C42.50631249 83.73332933 42.56010419 87.3138307 42.62109375 90.89453125 C42.6290094 92.10434158 42.6290094 92.10434158 42.63708496 93.33859253 C42.84722334 105.51920352 46.41973649 116.44431858 53.79296875 126.171875 C55.2406792 128.77292811 55.41076386 130.34493436 54.96484375 133.27734375 C51.89713184 135.32248502 51.30916327 135.52561649 47.8605957 135.50439453 C47.03997147 135.50424347 46.21934723 135.50409241 45.37385559 135.50393677 C44.05184395 135.48845291 44.05184395 135.48845291 42.703125 135.47265625 C41.3444355 135.46841141 41.3444355 135.46841141 39.95829773 135.46408081 C37.06451217 135.45288339 34.17103581 135.42777964 31.27734375 135.40234375 C29.31575968 135.39231338 27.35417075 135.38318763 25.39257812 135.375 C20.58321415 135.35294548 15.77408138 135.31841864 10.96484375 135.27734375 C10.83207031 136.21320313 10.69929688 137.1490625 10.5625 138.11328125 C9.72301688 142.55760366 7.9562728 144.89415661 4.23828125 147.4765625 C-0.72851878 150.29635933 -5.37992723 151.41233736 -11.03515625 150.27734375 C-16.65701496 147.93904853 -20.11067192 144.65839492 -23.03515625 139.27734375 C-23.36515625 138.28734375 -23.69515625 137.29734375 -24.03515625 136.27734375 C-25.26669434 136.25752441 -26.49823242 136.23770508 -27.76708984 136.21728516 C-32.32573286 136.14135193 -36.88405152 136.05261612 -41.44238281 135.95996094 C-43.41725269 135.92162026 -45.39219361 135.88677645 -47.3671875 135.85546875 C-50.2020817 135.80992828 -53.03648455 135.7519166 -55.87109375 135.69140625 C-56.75759613 135.67985504 -57.64409851 135.66830383 -58.5574646 135.65640259 C-59.37816437 135.6365329 -60.19886414 135.61666321 -61.04443359 135.59619141 C-61.76835297 135.58286774 -62.49227234 135.56954407 -63.23812866 135.55581665 C-65.03515625 135.27734375 -65.03515625 135.27734375 -67.03515625 133.27734375 C-67.03515625 128.52507025 -65.98367154 125.93429541 -63.22265625 122.08984375 C-54.54031552 109.6444282 -55.49629993 96.05297914 -55.54443359 81.54321289 C-55.56047752 63.27720802 -53.21376069 48.95316987 -40.28515625 34.96484375 C-33.99504244 29.0045029 -26.00377665 25.46479191 -18.03515625 22.27734375 C-18.55078125 21.28734375 -19.06640625 20.29734375 -19.59765625 19.27734375 C-21.37450195 15.069025 -21.48776434 11.61756064 -20.03515625 7.27734375 C-15.56833463 -0.24485028 -8.27105868 -2.93694022 0 0 Z " fill="#FDFDFD" transform="translate(114.03515625,39.72265625)"/>
<path d="M0 0 C3.9269987 2.05938148 6.39988812 4.13481413 7.96484375 8.27734375 C8.55563568 13.50871097 8.10280259 17.43925362 5.96484375 22.27734375 C7.00382812 22.75042969 8.0428125 23.22351563 9.11328125 23.7109375 C23.76559892 30.56909484 33.07332967 38.4470757 39.96484375 53.27734375 C41.8527487 58.78373319 42.27119063 63.64922697 42.30859375 69.39453125 C42.32321655 70.25112335 42.33783936 71.10771545 42.35290527 71.99026489 C42.39910031 74.71091105 42.43345856 77.431489 42.46484375 80.15234375 C42.50631249 83.73332933 42.56010419 87.3138307 42.62109375 90.89453125 C42.6290094 92.10434158 42.6290094 92.10434158 42.63708496 93.33859253 C42.84722334 105.51920352 46.41973649 116.44431858 53.79296875 126.171875 C55.2406792 128.77292811 55.41076386 130.34493436 54.96484375 133.27734375 C51.89713184 135.32248502 51.30916327 135.52561649 47.8605957 135.50439453 C47.03997147 135.50424347 46.21934723 135.50409241 45.37385559 135.50393677 C44.05184395 135.48845291 44.05184395 135.48845291 42.703125 135.47265625 C41.3444355 135.46841141 41.3444355 135.46841141 39.95829773 135.46408081 C37.06451217 135.45288339 34.17103581 135.42777964 31.27734375 135.40234375 C29.31575968 135.39231338 27.35417075 135.38318763 25.39257812 135.375 C20.58321415 135.35294548 15.77408138 135.31841864 10.96484375 135.27734375 C10.83207031 136.21320313 10.69929688 137.1490625 10.5625 138.11328125 C9.72301688 142.55760366 7.9562728 144.89415661 4.23828125 147.4765625 C-0.72851878 150.29635933 -5.37992723 151.41233736 -11.03515625 150.27734375 C-16.65701496 147.93904853 -20.11067192 144.65839492 -23.03515625 139.27734375 C-23.36515625 138.28734375 -23.69515625 137.29734375 -24.03515625 136.27734375 C-25.26669434 136.25752441 -26.49823242 136.23770508 -27.76708984 136.21728516 C-32.32573286 136.14135193 -36.88405152 136.05261612 -41.44238281 135.95996094 C-43.41725269 135.92162026 -45.39219361 135.88677645 -47.3671875 135.85546875 C-50.2020817 135.80992828 -53.03648455 135.7519166 -55.87109375 135.69140625 C-56.75759613 135.67985504 -57.64409851 135.66830383 -58.5574646 135.65640259 C-59.37816437 135.6365329 -60.19886414 135.61666321 -61.04443359 135.59619141 C-61.76835297 135.58286774 -62.49227234 135.56954407 -63.23812866 135.55581665 C-65.03515625 135.27734375 -65.03515625 135.27734375 -67.03515625 133.27734375 C-67.03515625 128.52507025 -65.98367154 125.93429541 -63.22265625 122.08984375 C-54.54031552 109.6444282 -55.49629993 96.05297914 -55.54443359 81.54321289 C-55.56047752 63.27720802 -53.21376069 48.95316987 -40.28515625 34.96484375 C-33.99504244 29.0045029 -26.00377665 25.46479191 -18.03515625 22.27734375 C-18.55078125 21.28734375 -19.06640625 20.29734375 -19.59765625 19.27734375 C-21.37450195 15.069025 -21.48776434 11.61756064 -20.03515625 7.27734375 C-15.56833463 -0.24485028 -8.27105868 -2.93694022 0 0 Z M-38.28515625 45.96484375 C-46.14263876 57.75180199 -46.71329616 68.31829605 -46.59765625 82.02734375 C-46.50044808 97.10165472 -47.04772869 110.55494086 -54.03515625 124.27734375 C-54.03515625 124.93734375 -54.03515625 125.59734375 -54.03515625 126.27734375 C-22.35515625 126.27734375 9.32484375 126.27734375 41.96484375 126.27734375 C39.98484375 121.32734375 38.00484375 116.37734375 35.96484375 111.27734375 C35.28404019 107.87332596 34.83963289 105.38568134 34.82299805 102.04467773 C34.81244637 100.84203529 34.81244637 100.84203529 34.80168152 99.61509705 C34.79751724 98.7598494 34.79335297 97.90460175 34.7890625 97.0234375 C34.76584754 95.18032733 34.74172955 93.33722836 34.71679688 91.49414062 C34.6818661 88.61345085 34.65242971 85.73316958 34.63891602 82.85229492 C34.54946533 66.87365076 33.45100633 54.18964254 21.96484375 42.1875 C12.61897449 33.22547894 3.97396317 30.56028021 -8.75439453 30.75561523 C-21.03064299 31.26683578 -30.47599426 36.38268325 -38.28515625 45.96484375 Z " fill="#3A3536" transform="translate(114.03515625,39.72265625)"/>
<path d="M0 0 C3 0.25 3 0.25 5 2.25 C5.33302312 5.3804173 5.47671956 7.42898298 3.875 10.1875 C2 11.25 2 11.25 -1.0625 11.125 C-4 10.25 -4 10.25 -6 7.25 C-5.5601518 2.74155593 -4.87125629 0.40593802 0 0 Z " fill="#F6F6F6" transform="translate(108,47.75)"/>
<path d="M0 0 C5.61 0 11.22 0 17 0 C15 4 15 4 12 6 C8.625 6.4375 8.625 6.4375 5 6 C2.0625 3.5625 2.0625 3.5625 0 1 C0 0.67 0 0.34 0 0 Z " fill="#F8F8F8" transform="translate(99,175)"/>
</svg>
